<?xml version="1.0" encoding="utf-8"?>
<!-- Generator: Adobe Illustrator 21.0.1, SVG Export Plug-In . SVG Version: 6.00 Build 0)  -->
<svg version="1.1" id="Calque_1" xmlns="http://www.w3.org/2000/svg" xmlns:xlink="http://www.w3.org/1999/xlink" x="0px" y="0px"
	 viewBox="0 0 87 87" style="enable-background:new 0 0 87 87;" xml:space="preserve">
<style type="text/css">
	.st0{fill:#898989;}
	.st1{display:none;fill:#898989;}
	.st3{fill:#FFFFFF;}
	.st4{display: none;}
</style>
<path id="explosion-1" class="st0" d="M43.5,16.1c-15.2,0-27.4,12.3-27.4,27.4s12.3,27.4,27.4,27.4s27.4-12.3,27.4-27.4
	S58.7,16.1,43.5,16.1z M43.5,54C37.7,54,33,49.3,33,43.5S37.7,33,43.5,33S54,37.7,54,43.5S49.3,54,43.5,54z"/>
<path id="explosion-2" class="st1" d="M43.5-4.5c-26.6,0-48,21.4-48,48c0,26.6,21.4,48,48,48c26.6,0,48-21.4,48-48
	C91.5,16.9,70.1-4.5,43.5-4.5z M43.5,91.3C17,91.3-4.3,70-4.3,43.5C-4.3,17,17-4.3,43.5-4.3C70-4.3,91.3,17,91.3,43.5
	C91.3,70,70,91.3,43.5,91.3z"/>
<linearGradient id="heart-gradient" gradientUnits="userSpaceOnUse" x1="43.5" y1="13.5" x2="43.5" y2="73.5">
	<stop  offset="0" style="stop-color:#FF5A79"/>
	<stop  offset="1" style="stop-color:#F72B57"/>
</linearGradient>
<path id="circle" class="st2" d="M43.5,13.5c-16.6,0-30,13.4-30,30s13.4,30,30,30s30-13.4,30-30S60.1,13.5,43.5,13.5z"/>
<path id="heart" class="st3" d="M60.1,36.3c-2.4-7.2-8-7.7-12.1-5.7l-2.3,1.5l-1.3,1.5l-0.9,2.1l-0.3-0.9l-0.6-1.1l-0.8-1.1
	c-3.8-4.1-12-5.4-14.9,3.7C23,48.6,42.1,59.7,43.5,61.5C44.9,60.1,64,48.4,60.1,36.3z"/>
<path id="heart-broken" class="st4" d="M60.1,36.3c-2.4-7.2-8-7.7-12.1-5.7l-4.5,8.3l5,0.3l-8.3,16.3l1.3-11.9l-7,2l7.3-12.9
	c-3.8-4.1-12-5.4-14.9,3.7C23,48.6,42.1,59.7,43.5,61.5C44.9,60.1,64,48.4,60.1,36.3z"/>
</svg>
