<?xml version="1.0" encoding="utf-8"?>
<!-- Generator: Adobe Illustrator 21.0.1, SVG Export Plug-In . SVG Version: 6.00 Build 0)  -->
<svg version="1.1" id="Calque_1" xmlns="http://www.w3.org/2000/svg" xmlns:xlink="http://www.w3.org/1999/xlink" x="0px" y="0px"
	 viewBox="0 0 87 87" style="enable-background:new 0 0 87 87;" xml:space="preserve">
<style type="text/css">
	.up0{fill:#898989;}
	.up1{display:none;fill:#898989;}
	.up2{fill:#C0C0C0;}
	.up3{fill:#FFFFFF;}
	.up4{fill:url(#circle-blue-gradient);}
</style>
<path id="explosion-1" class="up0" d="M43.5,16.1c-15.2,0-27.4,12.3-27.4,27.4s12.3,27.4,27.4,27.4s27.4-12.3,27.4-27.4
	S58.7,16.1,43.5,16.1z M43.5,54C37.7,54,33,49.3,33,43.5S37.7,33,43.5,33S54,37.7,54,43.5S49.3,54,43.5,54z"/>
<path id="explosion-2" class="up1" d="M43.5-4.5c-26.6,0-48,21.4-48,48s21.4,48,48,48s48-21.4,48-48S70.1-4.5,43.5-4.5z M43.5,91.3
	C17,91.3-4.3,70-4.3,43.5S17-4.3,43.5-4.3S91.3,17,91.3,43.5S70,91.3,43.5,91.3z"/>
<path id="circle-grey" class="up2" d="M43.5,13.5c-16.6,0-30,13.4-30,30s13.4,30,30,30s30-13.4,30-30S60.1,13.5,43.5,13.5z"/>
<path id="thumb" class="up3" d="M56.1,38.5c-2.3,0.1-6,0-8.3,0c-0.4,0-0.7,0-1.1,0c-0.3,0-0.4-0.1-0.3-0.4c0.1-0.5,0.2-0.9,0.3-1.3
	c0.3-1.2,0.4-2.4,0.3-3.6c0-0.2,0-0.4-0.1-0.5c-0.3-1.5-0.7-3.3-1.5-4.7c-0.2-0.4-0.5-0.6-0.9-0.7C44.4,27.1,44.1,27,44,27
	c-0.9-0.1-1.6,0.3-2.1,0.9c-0.3,0.3-0.3,0.5-0.3,0.8c0.1,1.3,0.3,3.2,0.3,4.6c0,0.3-0.1,0.5-0.2,0.7c-0.7,1.4-1.7,2.6-2.6,4
	c-0.5,0.9-2,1.7-2.7,2.4c-0.1,0.1-0.1,0.1-0.1,0.2v14.7h-1.8V42.5c0-0.7-0.6-1.3-1.3-1.3h-3c-0.7,0-1.3,0.6-1.3,1.3v13
	c0,0.7,0.6,1.3,1.3,1.3h3c0.7,0,1.3-0.6,1.3-1.3v-0.2h1.8c0,0,0,0,0.1,0s0.2,0,0.3,0s0.2-0.1,0.3-0.1c0.5-0.1,2-0.3,2.7-0.3
	c2,0,4.1,0,6.2,0c2,0,4.1,0,6.2,0c0.1,0,0.1,0,0.1,0c1.3,0,2.4-0.5,3-1.6c0.5-0.8,0.6-0.9,0.4-2c0-0.3,0-0.4,0.2-0.6
	c0.2-0.1,0.5-0.3,0.7-0.5c0.5-0.7,0.2-1.6-0.1-2.4c-0.1-0.3-0.1-0.5,0.2-0.8c0.9-0.9,1.1-2,0.7-3.1c-0.1-0.2-0.1-0.3,0.1-0.5
	c0.4-0.3,1.1-0.7,1.3-1.1C59.5,40.4,58,38.3,56.1,38.5z"/>
<linearGradient id="circle-blue-gradient" gradientUnits="userSpaceOnUse" x1="149.5166" y1="684.3481" x2="149.5166" y2="744.2197" gradientTransform="matrix(0.9888 0.1492 -0.1492 0.9888 2.2397 -685.1613)">
	<stop  offset="0" style="stop-color:#4F9AE3"/>
	<stop  offset="1" style="stop-color:#384CDB"/>
</linearGradient>
<path id="circle-color" class="up4" d="M43.5,13.5c-16.6,0-30,13.4-30,30s13.4,30,30,30s30-13.4,30-30S60.1,13.5,43.5,13.5z"/>
<path id="thumb-hidden" class="st3" d="M55.2,38.5c-3.1-0.3-5.4,0-7.3,0c-0.4,0-0.7,0-1.1,0c-0.3,0-1-0.1-1.3,0.1
	c-0.2,0.2-0.5,0.5-0.3,1c0.4,0.6,1.5,0.9,2,0.9c0.9,0.1,1,0.1,1.5,0.1c0.7,0,1.1,0,1.4-0.1c0.4-0.1,0.7-0.2,0.8-0.4
	c0.2-0.2,0.3-0.4,0.4-0.8c0-0.3,0.1-0.5,0-0.9s-1.1-0.6-1.2-0.6c-0.3-0.1-4.7-1.1-6.1-1.4c-1.3-0.2-2.3-0.1-3.3,0.2
	c-0.6,0.2-1.2,0.7-1.6,1.3c-0.6,0.9-2,1.7-2.7,2.4c-0.1,0.1-0.1,0.1-0.1,0.2v14.7h-1.8V42.5c0-0.7-0.6-1.3-1.3-1.3h-3
	c-0.7,0-1.3,0.6-1.3,1.3v13c0,0.7,0.6,1.3,1.3,1.3h3c0.7,0,1.3-0.6,1.3-1.3v-0.2h1.8c0,0,0,0,0.1,0s0.2,0,0.3,0s0.2-0.1,0.3-0.1
	c0.5-0.1,2-0.3,2.7-0.3c2,0,4.1,0,6.2,0c2,0,4.5,0,6.6,0c0.1,0,0.1,0,0.1,0c1.3,0,2.4-0.5,3-1.6c0.5-0.8,0.6-0.9,0.4-2
	c0-0.3-0.4-0.4-0.2-0.6c0.2-0.1,0.5-0.3,0.7-0.5c0.5-0.7,0.2-1.6-0.1-2.4c-0.1-0.3-0.1-0.5,0.2-0.8c0.9-0.9,0.1-2-0.3-3.1
	c-0.1-0.2-0.1-0.3,0.1-0.5c0.4-0.3,0.5-0.6,0.6-1.1C57.3,40.3,56.6,38.7,55.2,38.5z"/>
</svg>
