.down<?xml version="1.0" encoding="utf-8"?>
<!-- Generator: Adobe Illustrator 21.0.1, SVG Export Plug-In . SVG Version: 6.00 Build 0)  -->
<svg version="1.1" id="Calque_1" xmlns="http://www.w3.org/2000/svg" xmlns:xlink="http://www.w3.org/1999/xlink" x="0px" y="0px"
	 viewBox="0 0 87 87" style="enable-background:new 0 0 87 87;" xml:space="preserve">
<style type="text/css">
	.down0{fill:#898989;}
	.down1{display:none;fill:#898989;}
	.down2{fill:#C0C0C0;}
	.down3{fill:#FFFFFF;}
	.down4{fill:url(#circle-red-gradient);}
</style>
<path id="explosion-1" class="down0" d="M43.5,16.1c-15.2,0-27.4,12.3-27.4,27.4s12.3,27.4,27.4,27.4s27.4-12.3,27.4-27.4
	S58.7,16.1,43.5,16.1z M43.5,54C37.7,54,33,49.3,33,43.5S37.7,33,43.5,33S54,37.7,54,43.5S49.3,54,43.5,54z"/>
<path id="explosion-2" class="down1" d="M43.5-4.5c-26.6,0-48,21.4-48,48s21.4,48,48,48s48-21.4,48-48S70.1-4.5,43.5-4.5z M43.5,91.3
	C17,91.3-4.3,70-4.3,43.5S17-4.3,43.5-4.3S91.3,17,91.3,43.5S70,91.3,43.5,91.3z"/>
<path id="circle-grey" class="down2" d="M43.5,13.5c-16.6,0-30,13.4-30,30s13.4,30,30,30s30-13.4,30-30S60.1,13.5,43.5,13.5z"/>
<path id="thumb" class="down3" d="M58.7,45.5c-0.2-0.4-0.9-0.8-1.3-1.1c-0.2-0.2-0.2-0.3-0.1-0.5c0.4-1.1,0.2-2.2-0.7-3.1
	c-0.3-0.3-0.3-0.5-0.2-0.8c0.3-0.8,0.6-1.7,0.1-2.4c-0.2-0.2-0.5-0.4-0.7-0.5c-0.2-0.2-0.2-0.3-0.2-0.6c0.2-1.1,0.1-1.2-0.4-2
	c-0.6-1.1-1.7-1.6-3-1.6c0,0,0,0-0.1,0c-2.1,0-4.2,0-6.2,0c-2.1,0-4.2,0-6.2,0c-0.7,0-2.2-0.2-2.7-0.3c-0.1,0-0.2-0.1-0.3-0.1
	s-0.2,0-0.3,0s-0.1,0-0.1,0h-1.8v-0.2c0-0.7-0.6-1.3-1.3-1.3h-3c-0.7,0-1.3,0.6-1.3,1.3v13c0,0.7,0.6,1.3,1.3,1.3h3
	c0.7,0,1.3-0.6,1.3-1.3V32.5h1.8v14.7c0,0.1,0,0.1,0.1,0.2c0.7,0.7,2.2,1.5,2.7,2.4c0.9,1.4,1.9,2.6,2.6,4c0.1,0.2,0.2,0.4,0.2,0.7
	c0,1.4-0.2,3.3-0.3,4.6c0,0.3,0,0.5,0.3,0.8c0.5,0.6,1.2,1,2.1,0.9c0.1,0,0.4-0.1,0.5-0.3c0.4-0.1,0.7-0.3,0.9-0.7
	c0.8-1.4,1.2-3.2,1.5-4.7C47,55,47,54.8,47,54.6c0.1-1.2,0-2.4-0.3-3.6c-0.1-0.4-0.2-0.8-0.3-1.3c-0.1-0.3,0-0.4,0.3-0.4
	c0.4,0,0.7,0,1.1,0c2.3,0,6-0.1,8.3,0C58,49.5,59.5,47.4,58.7,45.5z"/>
<linearGradient id="circle-red-gradient" gradientUnits="userSpaceOnUse" x1="149.5166" y1="684.3481" x2="149.5166" y2="744.2197" gradientTransform="matrix(0.9888 0.1492 -0.1492 0.9888 2.2397 -685.1613)">
	<stop  offset="0" style="stop-color:#FF9489"/>
	<stop  offset="1" style="stop-color:#BF0000"/>
</linearGradient>
<path id="circle-color" class="down4" d="M43.5,13.5c-16.6,0-30,13.4-30,30s13.4,30,30,30s30-13.4,30-30S60.1,13.5,43.5,13.5z"/>
<path id="thumb-hidden" class="down3" d="M57,45.5c-0.1-0.5-0.2-0.8-0.6-1.1c-0.2-0.2-0.2-0.3-0.1-0.5c0.4-1.1,1.2-2.2,0.3-3.1
	c-0.3-0.3-0.3-0.5-0.2-0.8c0.3-0.8,0.6-1.7,0.1-2.4c-0.2-0.2-0.5-0.4-0.7-0.5c-0.2-0.2,0.2-0.3,0.2-0.6c0.2-1.1,0.1-1.2-0.4-2
	c-0.6-1.1-1.7-1.6-3-1.6c0,0,0,0-0.1,0c-2.1,0-4.6,0-6.6,0c-2.1,0-4.2,0-6.2,0c-0.7,0-2.2-0.2-2.7-0.3c-0.1,0-0.2-0.1-0.3-0.1
	s-0.2,0-0.3,0s-0.1,0-0.1,0h-1.8v-0.2c0-0.7-0.6-1.3-1.3-1.3h-3c-0.7,0-1.3,0.6-1.3,1.3v13c0,0.7,0.6,1.3,1.3,1.3h3
	c0.7,0,1.3-0.6,1.3-1.3V32.6h1.8v14.7c0,0.1,0,0.1,0.1,0.2c0.7,0.7,2.1,1.5,2.7,2.4c0.4,0.6,1,1.1,1.6,1.3c1,0.3,2,0.4,3.3,0.2
	c1.4-0.3,5.8-1.3,6.1-1.4c0.1,0,1.1-0.2,1.2-0.6s0-0.6,0-0.9c-0.1-0.4-0.2-0.6-0.4-0.8c-0.1-0.2-0.4-0.3-0.8-0.4
	c-0.3-0.1-0.7-0.1-1.4-0.1c-0.5,0-0.6,0-1.5,0.1c-0.5,0-1.6,0.3-2,0.9c-0.2,0.5,0.1,0.8,0.3,1c0.3,0.2,1,0.1,1.3,0.1
	c0.4,0,0.7,0,1.1,0c1.9,0,4.2,0.3,7.3,0C56.6,49.1,57.3,47.5,57,45.5z"/>
</svg>
